<svg xmlns="http://www.w3.org/2000/svg" fill="none" viewBox="0 0 1024 1024" height="1024" width="1024">
<g clip-path="url(#clip0_92_54)">
<rect class="varthree" height="1024" width="1024"></rect>
<path class="varthree" d="M0 0H1024V1024H0V0Z"></path>

<path class="varone" d="M65 307.48L82.1882 332.378L421.532 328.02L430.372 311.837C396.978 319.306 373.569 289.844 365.548 272C359.982 282.374 341.877 301.38 317.912 311.837C293.947 322.294 264.056 293.786 252.106 278.224C246.213 290.051 230.498 302.5 211.345 307.48C196.023 311.463 164.037 289.636 149.959 278.224C146.521 284.864 136.503 300.01 123.931 307.48C111.359 314.949 79.7327 312.252 65 307.48Z"></path>

<path class="varone" d="M581.628 308.102L598.816 333L938.16 328.643L947 312.459C913.606 319.929 890.197 290.466 882.176 272.623C876.61 282.997 858.505 302.002 834.54 312.459C810.575 322.916 780.684 294.408 768.734 278.847C762.841 290.674 747.126 303.123 727.973 308.102C712.651 312.086 680.665 290.259 666.587 278.847C663.149 285.487 653.131 300.633 640.559 308.102C627.987 315.572 596.361 312.874 581.628 308.102Z"></path>

<g filter="url(#filter0_i_92_54)">
<path class="vartwo" d="M52.8597 870.5C37.3597 892 89.3597 979 101.36 1002H410.859C358.859 825.2 307.193 856 287.859 893.5C269.193 923.833 228.359 966.3 214.359 893.5C200.359 820.7 105.193 769.5 59.3594 753C96.526 813.5 161.959 936.2 126.359 943C90.7594 949.8 62.5263 897.5 52.8597 870.5Z"></path>
<path class="vartwo" d="M577.86 875.5C562.36 897 614.36 984 626.36 1007H935.859C883.859 830.2 832.193 861 812.859 898.5C794.193 928.833 753.359 971.3 739.359 898.5C725.359 825.7 630.193 774.5 584.359 758C621.526 818.5 686.959 941.2 651.359 948C615.759 954.8 587.526 902.5 577.86 875.5Z"></path>
</g>

<path class="varfour" d="M80 652.33C115.239 630.362 227.913 581.916 283.554 597.666C342.731 614.418 401.404 514.776 414.013 485.655C414.76 483.757 415.478 481.871 416.165 480C415.777 481.337 415.051 483.257 414.013 485.655C383.474 563.219 303.422 662.398 262.688 638.432C203.002 603.316 118.485 640.442 80 652.33Z"></path>

<path class="varfour" d="M163.738 694.806C186.129 680.882 257.719 650.177 293.072 660.16C330.672 670.777 367.952 607.624 375.963 589.167C376.438 587.963 376.894 586.768 377.331 585.583C377.084 586.43 376.623 587.647 375.963 589.167C356.559 638.327 305.696 701.187 279.815 685.997C241.891 663.74 188.191 687.271 163.738 694.806Z"></path>

<path class="varfour" d="M212.281 730C226.911 720.872 273.689 700.743 296.789 707.287C321.357 714.248 345.716 672.847 350.951 660.748C351.261 659.959 351.559 659.175 351.844 658.398C351.683 658.954 351.382 659.751 350.951 660.748C338.272 692.975 305.038 734.183 288.127 724.226C263.347 709.635 228.259 725.06 212.281 730Z"></path>

<path class="varfour" d="M612.165 709C641.202 690.898 734.045 650.978 779.893 663.957C828.655 677.760 877.002 595.655 887.391 571.66C888.007 570.095 888.599 568.542 889.165 567C888.845 568.102 888.247 569.684 887.391 571.66C862.228 635.573 796.265 717.296 762.7 697.548C713.518 668.612 643.877 699.204 612.165 709Z"></path>

<path class="varfour" d="M681.165 744C699.615 732.527 758.605 707.226 787.736 715.452C818.718 724.2 849.437 672.162 856.038 656.954C856.43 655.962 856.805 654.977 857.165 654C856.962 654.698 856.582 655.701 856.038 656.954C840.05 697.462 798.138 749.258 776.812 736.742C745.563 718.402 701.314 737.791 681.165 744Z"></path>

<path class="varfour" d="M721.165 773C733.22 765.479 771.765 748.892 790.8 754.285C811.044 760.02 831.115 725.906 835.429 715.936C835.684 715.286 835.93 714.64 836.165 714C836.032 714.458 835.784 715.115 835.429 715.936C824.982 742.492 797.596 776.447 783.662 768.242C763.243 756.219 734.331 768.93 721.165 773Z"></path>
</g>

<defs>
<filter color-interpolation-filters="sRGB" filterUnits="userSpaceOnUse" height="256.2" width="888.059" y="753" x="50" id="filter0_i_92_54">
<feFlood result="BackgroundImageFix" flood-opacity="0"></feFlood>
<feBlend result="shape" in2="BackgroundImageFix" in="SourceGraphic" mode="normal"></feBlend>
<feColorMatrix result="hardAlpha" values="0 0 0 0 0 0 0 0 0 0 0 0 0 0 0 0 0 0 127 0" type="matrix" in="SourceAlpha"></feColorMatrix>
<feOffset dy="15" dx="15"></feOffset>
<feGaussianBlur stdDeviation="1.1"></feGaussianBlur>
<feComposite k3="1" k2="-1" operator="arithmetic" in2="hardAlpha"></feComposite>
<feColorMatrix values="0 0 0 0 0 0 0 0 0 0 0 0 0 0 0 0 0 0 0.12 0" type="matrix"></feColorMatrix>
<feBlend result="effect1_innerShadow_92_54" in2="shape" mode="normal"></feBlend>
</filter>
<clipPath id="clip0_92_54">
<rect fill="white" height="1024" width="1024"></rect>
</clipPath>
</defs>
</svg>